# xmcd CD database file
#
# Track frame offsets:
#	150
#	13417
#	27182
#	39785
#	58622
#	74777
#	88430
#	101070
#	113485
#	127192
#	144317
#	162227
#	177945
#	190112
#	200720
#	215880
#	234425
#	247962
#	257237
#	267735
#	279427
#	291045
#	306812
#	316985
#
# Disc length: 4368 seconds
#
# Revision: 1
# Processed by: cddbd v1.5.2PL0 Copyright (c) Steve Scherf et al.
# Submitted via: CDex 1.70beta2
#
DISCID=74110e18
DTITLE=Johnnie Ray - 'til Morning and A Sinner Am I
DYEAR=1999
DGENRE=
TTITLE0=It All Depends On You (Desylva-Brown-Henderson)
TTITLE1=My Ideal (Whiting-Chase-Robin)
TTITLE2=Too Marvellous For Words (Whiting-Mercer)
TTITLE3=I'm Confessin' (Nieburg-Dougharty-Reynolds)
TTITLE4=Teach Me Tonight (Cahn-DePaul)
TTITLE5=Nevertheless (I'm In Lov With You) (Kalmar-Ruby)
TTITLE6=All Through The Night (Porter)
TTITLE7=Hands Across The Table (Delettre-Parish)
TTITLE8=They Can't Take That Away From Me (George and Ira Gershwin)
TTITLE9=Day By Day (Cahn-Stordahl-Weston)
TTITLE10=I Can't Escape From You (Robin-Whiting)
TTITLE11=I'm Beginning To See The Light (George-Hodges-Ellington-James)
TTITLE12=A Sinner Am I (Johnnie Ray)
TTITLE13=A Hundred Years From Today (Young-Washington-Young)
TTITLE14=It's All In The Game (Sigman-Dawes)
TTITLE15=September Song (Anderson-Weill)
TTITLE16=Don't Worry 'bout Me (Bloom-Koehler)
TTITLE17=Day By Day (Cahn-Strordahl-Weston)
TTITLE18=If I Had You (Shapiro-Campbell-Connelly)
TTITLE19=Tell The Lady I Said Goodbye (Johnnie Ray)
TTITLE20=Give Me Time (Wilder)
TTITLE21=Don't Leave Me Now (Jones)
TTITLE22=All The Way (Van Heusen-Cahn)
TTITLE23=Love
EXTD=YEAR: 1999
EXTT0=
EXTT1=
EXTT2=
EXTT3=
EXTT4=
EXTT5=
EXTT6=
EXTT7=
EXTT8=
EXTT9=
EXTT10=
EXTT11=
EXTT12=
EXTT13=
EXTT14=
EXTT15=
EXTT16=
EXTT17=
EXTT18=
EXTT19=
EXTT20=
EXTT21=
EXTT22=
EXTT23=
PLAYORDER=
